<svg title="Bild-/Wortmarke Leibniz-Institut für Geschichte und Kultur des östlichen Europa (GWZO)" class="navbar__brand-logo" xmlns="http://www.w3.org/2000/svg" xmlns:xlink="http://www.w3.org/1999/xlink" viewBox="0 0 392 93"><g fill="currentColor"><path d="M16.993149 86.5340534c-5.7959216 0-10.52720236-4.7299106-10.52720236-10.5272024 0-5.7972919 4.73128076-10.5272024 10.52720236-10.5272024 5.8096236 0 10.5272024 4.7299105 10.5272024 10.5272024 0 5.7972918-4.7175788 10.5272024-10.5272024 10.5272024zm0-27.5340534C7.61553961 59 0 66.6292416 0 76.006851 0 85.3858306 7.61553961 93 16.993149 93 26.3721286 93 34 85.3858306 34 76.006851 34 66.6292416 26.3721286 59 16.993149 59zm-5e-7-12.4775602c-5.7963889 0-10.52668066-4.7283861-10.52668066-10.5224398 0-5.7954234 4.73029176-10.5224398 10.52668066-10.5224398 5.8100919 0 10.5266806 4.7270164 10.5266806 10.5224398 0 5.7940537-4.7165887 10.5224398-10.5266806 10.5224398zm0-27.5224398C7.61478317 19 0 26.6254129 0 36s7.61478317 17 16.9931485 17C26.3715138 53 34 45.3745871 34 36s-7.6284862-17-17.0068515-17zM138.006852 46.5224398c-5.810092 0-10.526681-4.7283861-10.526681-10.5224398 0-5.7954234 4.716589-10.5224398 10.526681-10.5224398 5.796388 0 10.52668 4.7270164 10.52668 10.5224398 0 5.7940537-4.730292 10.5224398-10.52668 10.5224398zm0-27.5224398C128.628486 19 121 26.6254129 121 36s7.628486 17 17.006852 17C147.385217 53 155 45.3745871 155 36s-7.614783-17-16.993148-17zM121 46.3997207V53H90.4101532v-6.6002793c12.9844978 0 21.6850078-9.6260472 21.6850078-19.7994414H92.3139939C92.3139939 39.6626047 86.7391507 53 65.8714549 53h-4.0796586v-7.5022848C59.589747 49.2970297 53.9486352 53 42.7575309 53H38V20h6.7980505v26.3997207c8.9724879 0 16.7797535-4.7446052 16.9937458-21.1747905L61.860826 20h6.7290208v26.3997207c8.9945774 0 16.7466192-5.3966742 16.9937457-18.950495L85.7202715 20h33.1715595v3.8509774c0 13.6110688-7.000998 19.4559533-9.856069 21.861767v.6869763H121zM27.288.904l-13.939 9.242 3.799 5.499 13.87-9.241zM178.355 31.036V34h-8.816V20.7h3.135v10.336h5.681zm8.03-.551l2.66 1.121c-.430669.8740044-1.032329 1.5421644-1.805 2.0045-.772671.4623356-1.652995.6935-2.641.6935-.962671 0-1.836663-.2279977-2.622-.684-.785337-.4560023-1.402831-1.0798294-1.8525-1.8715-.449669-.7916706-.6745-1.6751618-.6745-2.6505 0-.9753382.212165-1.8588294.6365-2.6505.424335-.7916706 1.01333-1.4123311 1.767-1.862.75367-.4496689 1.605495-.6745 2.5555-.6745.899338 0 1.71633.2121645 2.451.6365.73467.4243355 1.320498 1.0101629 1.7575 1.7575.437002.7473371.680833 1.589662.7315 2.527l.019.361-6.555 1.292c.177334.3800019.421165.6776656.7315.893.310335.2153344.661831.323 1.0545.323.861338 0 1.456665-.4053293 1.786-1.216zm-3.8-2.09l3.382-.665c-.139334-.3926686-.345165-.6966656-.6175-.912-.272335-.2153344-.585832-.323-.9405-.323-.430669 0-.813832.1741649-1.1495.5225-.335668.3483351-.560499.8074972-.6745 1.3775zm8.771-8.246h2.964v2.755h-2.964v-2.755zm0 4.066h2.964V34h-2.964v-9.785zm15.611 4.883c0 .9880049-.189998 1.8778294-.57 2.6695-.380002.7916706-.902497 1.4123311-1.5675 1.862-.665003.4496689-1.415496.6745-2.2515.6745-1.178006 0-2.09633-.4243291-2.755-1.273V34h-2.964V20.13h2.964v5.054c.65867-.8486709 1.576994-1.273 2.755-1.273.836004 0 1.586497.2248311 2.2515.6745s1.187498 1.0671627 1.5675 1.8525c.380002.7853373.57 1.6719951.57 2.66zm-3.059 0c0-.7346703-.193165-1.3394976-.5795-1.8145-.386335-.4750024-.877164-.7125-1.4725-.7125-.595336 0-1.092498.2438309-1.4915.7315-.399002.4876691-.5985 1.0861631-.5985 1.7955 0 .7346703.199498 1.3394976.5985 1.8145.399002.4750024.896164.7125 1.4915.7125.595336 0 1.086165-.234331 1.4725-.703.386335-.468669.5795-1.0766629.5795-1.824zm14.471-1.197V34h-2.964v-5.358c0-.6966701-.136165-1.2254982-.4085-1.5865-.272335-.3610018-.668164-.5415-1.1875-.5415-.595336 0-1.057665.234331-1.387.703-.329335.468669-.494 1.0829962-.494 1.843V34h-2.964v-9.785h2.964v1.14c.342002-.4560023.750498-.8043321 1.2255-1.045.475002-.2406679 1.00383-.361 1.5865-.361 1.089339 0 1.966497.3609964 2.6315 1.083s.9975 1.6783274.9975 2.869zm2.444-7.752h2.964v2.755h-2.964v-2.755zm0 4.066h2.964V34h-2.964v-9.785zm5.009 7.372l4.028-4.788h-3.838v-2.584h7.619v2.413l-4.028 4.788h4.199V34h-7.98v-2.413zm9.379-4.408h5.662v2.584h-5.662v-2.584zm8.201-6.479h3.135V34h-3.135V20.7zm15.383 7.201V34h-2.964v-5.358c0-.6966701-.136165-1.2254982-.4085-1.5865-.272335-.3610018-.668164-.5415-1.1875-.5415-.595336 0-1.057665.234331-1.387.703-.329335.468669-.494 1.0829962-.494 1.843V34h-2.964v-9.785h2.964v1.14c.342002-.4560023.750498-.8043321 1.2255-1.045.475002-.2406679 1.00383-.361 1.5865-.361 1.089339 0 1.966497.3609964 2.6315 1.083s.9975 1.6783274.9975 2.869zm1.76 4.75l1.767-1.9c.342002.3420017.759998.6143323 1.254.817.494002.2026677.981664.304 1.463.304.468669 0 .848665-.0633327 1.14-.19.291335-.1266673.437-.2976656.437-.513 0-.2153344-.126665-.3736662-.38-.475-.253335-.1013338-.658664-.1963329-1.216-.285-.760004-.139334-1.402831-.3008324-1.9285-.4845-.525669-.1836676-.984831-.5034977-1.3775-.9595-.392669-.4560023-.589-1.0956626-.589-1.919 0-.9753382.37683-1.7416639 1.1305-2.299.75367-.5573361 1.782827-.836 3.0875-.836.747337 0 1.453497.1076656 2.1185.323s1.250831.5256646 1.7575.931l-1.615 2.014c-.354668-.2533346-.744165-.4559992-1.1685-.608-.424335-.1520008-.801165-.228-1.1305-.228-.392669 0-.693499.0601661-.9025.1805s-.3135.2881656-.3135.5035c0 .2026677.132999.3578328.399.4655.266001.1076672.677664.2058329 1.235.2945.73467.1266673 1.367997.2849991 1.9.475.532003.1900009.991165.5161644 1.3775.9785.386335.4623356.5795 1.1051626.5795 1.9285 0 1.0006717-.405329 1.7733306-1.216 2.318-.810671.5446694-1.963326.817-3.458.817-.823337 0-1.633996-.1519985-2.432-.456-.798004-.3040015-1.437664-.7029975-1.919-1.197zm17.796 1.178c-.202668.1013338-.576331.2026662-1.121.304s-.968998.152-1.273.152c-1.24134 0-2.197663-.3103302-2.869-.931-.671337-.6206698-1.007-1.5009943-1.007-2.641v-3.914h-1.938v-2.584h1.938v-2.793h2.964v2.793h3.021v2.584h-3.021v3.648c0 .7726705.392663 1.159 1.178 1.159.519336 0 1.025998-.0823325 1.52-.247l.608 2.47zm1.874-13.68h2.964v2.755h-2.964v-2.755zm0 4.066h2.964V34h-2.964v-9.785zm12.666 9.614c-.202668.1013338-.576331.2026662-1.121.304s-.968998.152-1.273.152c-1.24134 0-2.197663-.3103302-2.869-.931-.671337-.6206698-1.007-1.5009943-1.007-2.641v-3.914h-1.938v-2.584h1.938v-2.793h2.964v2.793h3.021v2.584h-3.021v3.648c0 .7726705.392663 1.159 1.178 1.159.519336 0 1.025998-.0823325 1.52-.247l.608 2.47zm1.779-3.895v-5.719h2.964v5.453c0 .5700029.155165 1.0291649.4655 1.3775.310335.3483351.718831.5225 1.2255.5225.519336 0 .934165-.1741649 1.2445-.5225.310335-.3483351.4655-.8074971.4655-1.3775v-5.453h2.964v5.719c0 .8486709-.196331 1.60233-.589 2.261-.392669.65867-.940496 1.1684982-1.6435 1.5295-.703004.3610018-1.516829.5415-2.4415.5415s-1.738496-.1804982-2.4415-.5415-1.247665-.87083-1.634-1.5295c-.386335-.65867-.5795-1.4123291-.5795-2.261zm18.936 3.895c-.202668.1013338-.576331.2026662-1.121.304s-.968998.152-1.273.152c-1.24134 0-2.197663-.3103302-2.869-.931-.671337-.6206698-1.007-1.5009943-1.007-2.641v-3.914h-1.938v-2.584h1.938v-2.793h2.964v2.793h3.021v2.584H310.3v3.648c0 .7726705.392663 1.159 1.178 1.159.519336 0 1.025998-.0823325 1.52-.247l.608 2.47zm9.752-9.614h3.04v2.584h-2.831V34h-2.945v-7.201h-1.938v-2.584h1.71c-.012667-.0633336-.053833-.2469985-.1235-.551-.069667-.3040015-.1045-.5953319-.1045-.874 0-.8993378.37683-1.618164 1.1305-2.1565.75367-.538336 1.725827-.8075 2.9165-.8075.430669 0 .870831.0411663 1.3205.1235s.813832.193166 1.0925.3325l-.836 2.394c-.443336-.1646675-.886664-.247-1.33-.247-.848671 0-1.273.2913304-1.273.874 0 .1773342.056999.4813312.171.912zm4.211 5.719v-5.719h2.964v5.453c0 .5700029.155165 1.0291649.4655 1.3775.310335.3483351.718831.5225 1.2255.5225.519336 0 .934165-.1741649 1.2445-.5225.310335-.3483351.4655-.8074971.4655-1.3775v-5.453h2.964v5.719c0 .8486709-.196331 1.60233-.589 2.261-.392669.65867-.940496 1.1684982-1.6435 1.5295-.703004.3610018-1.516829.5415-2.4415.5415s-1.738496-.1804982-2.4415-.5415-1.247665-.87083-1.634-1.5295c-.386335-.65867-.5795-1.4123291-.5795-2.261zm1.007-9.785h2.85v2.755h-2.85v-2.755zm4.427 0h2.869v2.755h-2.869v-2.755zm15.041 7.011l-2.66.95c-.076-.5066692-.231165-.8961653-.4655-1.1685-.234334-.2723347-.535165-.4085-.9025-.4085-.544669 0-.965832.2628307-1.2635.7885-.297668.5256693-.4465 1.2444954-.4465 2.1565V34h-2.964v-9.785h2.964v1.216c.519336-1.0133384 1.348994-1.52 2.489-1.52.848671 0 1.56433.2913304 2.147.874.58267.5826696.949999 1.3743283 1.102 2.375zm-166.63 22.259v.741c0 1.3933403-.253331 2.6314946-.76 3.7145-.506669 1.0830054-1.215995 1.9253303-2.128 2.527-.912005.6016697-1.950661.9025-3.116.9025-1.228673 0-2.343328-.303997-3.344-.912-1.000672-.608003-1.79233-1.4439947-2.375-2.508s-.874-2.2419935-.874-3.534c0-1.2920065.29133-2.4699947.874-3.534.58267-1.0640053 1.374328-1.899997 2.375-2.508 1.000672-.608003 2.115327-.912 3.344-.912 1.000672 0 1.944329.2153312 2.831.646s1.64033 1.0386627 2.261 1.824l-2.394 1.862c-.304002-.3926686-.690331-.7124988-1.159-.9595-.468669-.2470012-.981664-.3705-1.539-.3705-.646003 0-1.228664.1678317-1.748.5035-.519336.3356683-.924665.8043303-1.216 1.406-.291335.6016697-.437 1.2824962-.437 2.0425s.145665 1.4408303.437 2.0425.696664 1.0703317 1.216 1.406c.519336.3356683 1.101997.5035 1.748.5035.671337 0 1.228664-.1931647 1.672-.5795.443336-.3863353.759999-.9531629.95-1.7005h-2.66v-2.603h6.042zm8.486 4.066l2.66 1.121c-.430669.8740044-1.032329 1.5421644-1.805 2.0045-.772671.4623356-1.652995.6935-2.641.6935-.962671 0-1.836663-.2279977-2.622-.684-.785337-.4560023-1.402831-1.0798294-1.8525-1.8715-.449669-.7916706-.6745-1.6751618-.6745-2.6505 0-.9753382.212165-1.8588294.6365-2.6505.424335-.7916706 1.01333-1.4123311 1.767-1.862.75367-.4496689 1.605495-.6745 2.5555-.6745.899338 0 1.71633.2121645 2.451.6365.73467.4243355 1.320498 1.0101629 1.7575 1.7575.437002.7473371.680833 1.589662.7315 2.527l.019.361-6.555 1.292c.177334.3800019.421165.6776656.7315.893.310335.2153344.661831.323 1.0545.323.861338 0 1.456665-.4053293 1.786-1.216zm-3.8-2.09l3.382-.665c-.139334-.3926686-.345165-.6966656-.6175-.912-.272335-.2153344-.585832-.323-.9405-.323-.430669 0-.813832.1741649-1.1495.5225-.335668.3483351-.560499.8074972-.6745 1.3775zm7.726 4.256l1.767-1.9c.342002.3420017.759998.6143323 1.254.817.494002.2026677.981664.304 1.463.304.468669 0 .848665-.0633327 1.14-.19.291335-.1266673.437-.2976656.437-.513 0-.2153344-.126665-.3736662-.38-.475-.253335-.1013338-.658664-.1963329-1.216-.285-.760004-.139334-1.402831-.3008324-1.9285-.4845-.525669-.1836676-.984831-.5034977-1.3775-.9595-.392669-.4560023-.589-1.0956626-.589-1.919 0-.9753382.37683-1.7416639 1.1305-2.299.75367-.5573361 1.782827-.836 3.0875-.836.747337 0 1.453497.1076656 2.1185.323s1.250831.5256646 1.7575.931l-1.615 2.014c-.354668-.2533346-.744165-.4559992-1.1685-.608-.424335-.1520008-.801165-.228-1.1305-.228-.392669 0-.693499.0601661-.9025.1805s-.3135.2881656-.3135.5035c0 .2026677.132999.3578328.399.4655.266001.1076672.677664.2058329 1.235.2945.73467.1266673 1.367997.2849991 1.9.475.532003.1900009.991165.5161644 1.3775.9785.386335.4623356.5795 1.1051626.5795 1.9285 0 1.0006717-.405329 1.7733306-1.216 2.318-.810671.5446694-1.963326.817-3.458.817-.823337 0-1.633996-.1519985-2.432-.456-.798004-.3040015-1.437664-.7029975-1.919-1.197zm10.443-3.553c0-1.0006717.218498-1.8936627.6555-2.679.437002-.7853373 1.044996-1.3996644 1.824-1.843.779004-.4433355 1.668828-.665 2.6695-.665.988005 0 1.833496.2153312 2.5365.646.703004.4306688 1.295164 1.0956622 1.7765 1.995l-2.641 1.216c-.354668-.798004-.911996-1.197-1.672-1.197-.595336 0-1.089331.2406643-1.482.722-.392669.4813357-.589 1.0829964-.589 1.805 0 .7346703.196331 1.3394976.589 1.8145.392669.4750024.886664.7125 1.482.7125.772671 0 1.329998-.4243291 1.672-1.273l2.679 1.292c-.924671 1.7733422-2.37499 2.66-4.351 2.66-1.000672 0-1.890496-.2216645-2.6695-.665-.779004-.4433356-1.386998-1.0576627-1.824-1.843-.437002-.7853373-.6555-1.6846616-.6555-2.698zm20.798-1.197V57h-2.964v-5.358c0-.6966701-.136165-1.2254982-.4085-1.5865-.272335-.3610018-.668164-.5415-1.1875-.5415-.595336 0-1.057665.234331-1.387.703-.329335.468669-.494 1.0829962-.494 1.843V57h-2.964V43.13h2.964v5.225c.342002-.4560023.750498-.8043321 1.2255-1.045.475002-.2406679 1.00383-.361 1.5865-.361 1.089339 0 1.966497.3609964 2.6315 1.083s.9975 1.6783274.9975 2.869zm2.444-7.752h2.964v2.755h-2.964v-2.755zm0 4.066h2.964V57h-2.964v-9.785zm4.933 4.883c0-1.0006717.218498-1.8936627.6555-2.679.437002-.7853373 1.044996-1.3996644 1.824-1.843.779004-.4433355 1.668828-.665 2.6695-.665.988005 0 1.833496.2153312 2.5365.646.703004.4306688 1.295164 1.0956622 1.7765 1.995l-2.641 1.216c-.354668-.798004-.911996-1.197-1.672-1.197-.595336 0-1.089331.2406643-1.482.722-.392669.4813357-.589 1.0829964-.589 1.805 0 .7346703.196331 1.3394976.589 1.8145.392669.4750024.886664.7125 1.482.7125.772671 0 1.329998-.4243291 1.672-1.273l2.679 1.292c-.924671 1.7733422-2.37499 2.66-4.351 2.66-1.000672 0-1.890496-.2216645-2.6695-.665-.779004-.4433356-1.386998-1.0576627-1.824-1.843-.437002-.7853373-.6555-1.6846616-.6555-2.698zm20.798-1.197V57h-2.964v-5.358c0-.6966701-.136165-1.2254982-.4085-1.5865-.272335-.3610018-.668164-.5415-1.1875-.5415-.595336 0-1.057665.234331-1.387.703-.329335.468669-.494 1.0829962-.494 1.843V57h-2.964V43.13h2.964v5.225c.342002-.4560023.750498-.8043321 1.2255-1.045.475002-.2406679 1.00383-.361 1.5865-.361 1.089339 0 1.966497.3609964 2.6315 1.083s.9975 1.6783274.9975 2.869zm9.607 5.928c-.202668.1013338-.576331.2026662-1.121.304s-.968998.152-1.273.152c-1.24134 0-2.197663-.3103302-2.869-.931-.671337-.6206698-1.007-1.5009943-1.007-2.641v-3.914h-1.938v-2.584h1.938v-2.793h2.964v2.793h3.021v2.584h-3.021v3.648c0 .7726705.392663 1.159 1.178 1.159.519336 0 1.025998-.0823325 1.52-.247l.608 2.47zm8.03-3.344l2.66 1.121c-.430669.8740044-1.032329 1.5421644-1.805 2.0045-.772671.4623356-1.652995.6935-2.641.6935-.962671 0-1.836663-.2279977-2.622-.684-.785337-.4560023-1.402831-1.0798294-1.8525-1.8715-.449669-.7916706-.6745-1.6751618-.6745-2.6505 0-.9753382.212165-1.8588294.6365-2.6505.424335-.7916706 1.01333-1.4123311 1.767-1.862.75367-.4496689 1.605495-.6745 2.5555-.6745.899338 0 1.71633.2121645 2.451.6365.73467.4243355 1.320498 1.0101629 1.7575 1.7575.437002.7473371.680833 1.589662.7315 2.527l.019.361-6.555 1.292c.177334.3800019.421165.6776656.7315.893.310335.2153344.661831.323 1.0545.323.861338 0 1.456665-.4053293 1.786-1.216zm-3.8-2.09l3.382-.665c-.139334-.3926686-.345165-.6966656-.6175-.912-.272335-.2153344-.585832-.323-.9405-.323-.430669 0-.813832.1741649-1.1495.5225-.335668.3483351-.560499.8074972-.6745 1.3775zm12.925 1.539v-5.719h2.964v5.453c0 .5700029.155165 1.0291649.4655 1.3775.310335.3483351.718831.5225 1.2255.5225.519336 0 .934165-.1741649 1.2445-.5225.310335-.3483351.4655-.8074971.4655-1.3775v-5.453h2.964v5.719c0 .8486709-.196331 1.60233-.589 2.261-.392669.65867-.940496 1.1684982-1.6435 1.5295-.703004.3610018-1.516829.5415-2.4415.5415s-1.738496-.1804982-2.4415-.5415-1.247665-.87083-1.634-1.5295c-.386335-.65867-.5795-1.4123291-.5795-2.261zm21.178-2.033V57h-2.964v-5.358c0-.6966701-.136165-1.2254982-.4085-1.5865-.272335-.3610018-.668164-.5415-1.1875-.5415-.595336 0-1.057665.234331-1.387.703-.329335.468669-.494 1.0829962-.494 1.843V57h-2.964v-9.785h2.964v1.14c.342002-.4560023.750498-.8043321 1.2255-1.045.475002-.2406679 1.00383-.361 1.5865-.361 1.089339 0 1.966497.3609964 2.6315 1.083s.9975 1.6783274.9975 2.869zm12.001-7.771V57h-2.964v-.969c-.65867.8486709-1.576994 1.273-2.755 1.273-.836004 0-1.586497-.2248311-2.2515-.6745s-1.187498-1.0703294-1.5675-1.862c-.380002-.7916706-.57-1.6814951-.57-2.6695 0-.9880049.189998-1.8746627.57-2.66.380002-.7853373.902497-1.4028311 1.5675-1.8525.665003-.4496689 1.415496-.6745 2.2515-.6745 1.178006 0 2.09633.4243291 2.755 1.273V43.13h2.964zm-2.907 8.968c0-.7093369-.199498-1.3078309-.5985-1.7955-.399002-.4876691-.896164-.7315-1.4915-.7315-.595336 0-1.086165.2374976-1.4725.7125-.386335.4750024-.5795 1.0798297-.5795 1.8145 0 .7473371.193165 1.355331.5795 1.824s.877164.703 1.4725.703c.595336 0 1.092498-.2374976 1.4915-.7125.399002-.4750024.5985-1.0798297.5985-1.8145zm14.635-.323h-1.501V57h-3.135V43.7h3.135v5.111h1.121c.772671 0 1.367998-.4211625 1.786-1.2635.418002-.8423375.728332-2.1248247.931-3.8475h3.249c-.202668 1.6086747-.538331 3.0083274-1.007 4.199-.468669 1.1906726-1.038663 2.11533-1.71 2.774l3.249 5.092-2.812 1.482-3.306-5.472zm7.346 1.159v-5.719h2.964v5.453c0 .5700029.155165 1.0291649.4655 1.3775.310335.3483351.718831.5225 1.2255.5225.519336 0 .934165-.1741649 1.2445-.5225.310335-.3483351.4655-.8074971.4655-1.3775v-5.453h2.964v5.719c0 .8486709-.196331 1.60233-.589 2.261-.392669.65867-.940496 1.1684982-1.6435 1.5295-.703004.3610018-1.516829.5415-2.4415.5415s-1.738496-.1804982-2.4415-.5415-1.247665-.87083-1.634-1.5295c-.386335-.65867-.5795-1.4123291-.5795-2.261zm11.773-9.804h2.964V57h-2.964V43.13zm12.666 13.699c-.202668.1013338-.576331.2026662-1.121.304s-.968998.152-1.273.152c-1.24134 0-2.197663-.3103302-2.869-.931-.671337-.6206698-1.007-1.5009943-1.007-2.641v-3.914h-1.938v-2.584h1.938v-2.793h2.964v2.793h3.021v2.584h-3.021v3.648c0 .7726705.392663 1.159 1.178 1.159.519336 0 1.025998-.0823325 1.52-.247l.608 2.47zm1.779-3.895v-5.719h2.964v5.453c0 .5700029.155165 1.0291649.4655 1.3775.310335.3483351.718831.5225 1.2255.5225.519336 0 .934165-.1741649 1.2445-.5225.310335-.3483351.4655-.8074971.4655-1.3775v-5.453h2.964v5.719c0 .8486709-.196331 1.60233-.589 2.261-.392669.65867-.940496 1.1684982-1.6435 1.5295-.703004.3610018-1.516829.5415-2.4415.5415s-1.738496-.1804982-2.4415-.5415-1.247665-.87083-1.634-1.5295c-.386335-.65867-.5795-1.4123291-.5795-2.261zm20.475-2.774l-2.66.95c-.076-.5066692-.231165-.8961653-.4655-1.1685-.234334-.2723347-.535165-.4085-.9025-.4085-.544669 0-.965832.2628307-1.2635.7885-.297668.5256693-.4465 1.2444954-.4465 2.1565V57h-2.964v-9.785h2.964v1.216c.519336-1.0133384 1.348994-1.52 2.489-1.52.848671 0 1.56433.2913304 2.147.874.58267.5826696.949999 1.3743283 1.102 2.375zM178.811 66.13V80h-2.964v-.969c-.65867.8486709-1.576994 1.273-2.755 1.273-.836004 0-1.586497-.2248311-2.2515-.6745s-1.187498-1.0703294-1.5675-1.862c-.380002-.7916706-.57-1.6814951-.57-2.6695 0-.9880049.189998-1.8746627.57-2.66.380002-.7853373.902497-1.4028311 1.5675-1.8525.665003-.4496689 1.415496-.6745 2.2515-.6745 1.178006 0 2.09633.4243291 2.755 1.273V66.13h2.964zm-2.907 8.968c0-.7093369-.199498-1.3078309-.5985-1.7955-.399002-.4876691-.896164-.7315-1.4915-.7315-.595336 0-1.086165.2374976-1.4725.7125-.386335.4750024-.5795 1.0798297-.5795 1.8145 0 .7473371.193165 1.355331.5795 1.824s.877164.703 1.4725.703c.595336 0 1.092498-.2374976 1.4915-.7125.399002-.4750024.5985-1.0798297.5985-1.8145zm11.83 1.387l2.66 1.121c-.430669.8740044-1.032329 1.5421644-1.805 2.0045-.772671.4623356-1.652995.6935-2.641.6935-.962671 0-1.836663-.2279977-2.622-.684-.785337-.4560023-1.402831-1.0798294-1.8525-1.8715-.449669-.7916706-.6745-1.6751618-.6745-2.6505 0-.9753382.212165-1.8588294.6365-2.6505.424335-.7916706 1.01333-1.4123311 1.767-1.862.75367-.4496689 1.605495-.6745 2.5555-.6745.899338 0 1.71633.2121645 2.451.6365.73467.4243355 1.320498 1.0101629 1.7575 1.7575.437002.7473371.680833 1.589662.7315 2.527l.019.361-6.555 1.292c.177334.3800019.421165.6776656.7315.893.310335.2153344.661831.323 1.0545.323.861338 0 1.456665-.4053293 1.786-1.216zm-3.8-2.09l3.382-.665c-.139334-.3926686-.345165-.6966656-.6175-.912-.272335-.2153344-.585832-.323-.9405-.323-.430669 0-.813832.1741649-1.1495.5225-.335668.3483351-.560499.8074972-.6745 1.3775zm7.726 4.256l1.767-1.9c.342002.3420017.759998.6143323 1.254.817.494002.2026677.981664.304 1.463.304.468669 0 .848665-.0633327 1.14-.19.291335-.1266673.437-.2976656.437-.513 0-.2153344-.126665-.3736662-.38-.475-.253335-.1013338-.658664-.1963329-1.216-.285-.760004-.139334-1.402831-.3008324-1.9285-.4845-.525669-.1836676-.984831-.5034977-1.3775-.9595-.392669-.4560023-.589-1.0956625-.589-1.919 0-.9753382.37683-1.7416639 1.1305-2.299.75367-.5573361 1.782827-.836 3.0875-.836.747337 0 1.453497.1076656 2.1185.323s1.250831.5256646 1.7575.931l-1.615 2.014c-.354668-.2533346-.744165-.4559992-1.1685-.608-.424335-.1520008-.801165-.228-1.1305-.228-.392669 0-.693499.0601661-.9025.1805s-.3135.2881656-.3135.5035c0 .2026677.132999.3578328.399.4655.266001.1076672.677664.2058329 1.235.2945.73467.1266673 1.367997.2849991 1.9.475.532003.1900009.991165.5161644 1.3775.9785.386335.4623356.5795 1.1051626.5795 1.9285 0 1.0006717-.405329 1.7733306-1.216 2.318-.810671.5446694-1.963326.817-3.458.817-.823337 0-1.633996-.1519985-2.432-.456-.798004-.3040015-1.437664-.7029975-1.919-1.197zm14.692-3.553c0-.9880049.221664-1.8778294.665-2.6695.443336-.7916706 1.057663-1.4091645 1.843-1.8525.785337-.4433356 1.671995-.665 2.66-.665.988005 0 1.874663.2216644 2.66.665.785337.4433355 1.399664 1.0608294 1.843 1.8525.443336.7916706.665 1.6814951.665 2.6695 0 1.0006717-.221664 1.8968294-.665 2.6885-.443336.7916706-1.054496 1.4091645-1.8335 1.8525-.779004.4433355-1.668828.665-2.6695.665-1.000672 0-1.890496-.2216645-2.6695-.665-.779004-.4433355-1.390164-1.0608294-1.8335-1.8525-.443336-.7916706-.665-1.6878283-.665-2.6885zm7.258 0c0-.7220036-.199498-1.317331-.5985-1.786s-.896164-.703-1.4915-.703c-.595336 0-1.092498.234331-1.4915.703-.399002.468669-.5985 1.0639964-.5985 1.786 0 .7346703.199498 1.336331.5985 1.805s.896164.703 1.4915.703c.608003 0 1.108331-.234331 1.501-.703.392669-.468669.589-1.0703297.589-1.805zm-5.738-8.949h2.85v2.755h-2.85v-2.755zm4.427 0h2.869v2.755h-2.869v-2.755zm5.351 12.502l1.767-1.9c.342002.3420017.759998.6143323 1.254.817.494002.2026677.981664.304 1.463.304.468669 0 .848665-.0633327 1.14-.19.291335-.1266673.437-.2976656.437-.513 0-.2153344-.126665-.3736662-.38-.475-.253335-.1013338-.658664-.1963329-1.216-.285-.760004-.139334-1.402831-.3008324-1.9285-.4845-.525669-.1836676-.984831-.5034977-1.3775-.9595-.392669-.4560023-.589-1.0956625-.589-1.919 0-.9753382.37683-1.7416639 1.1305-2.299.75367-.5573361 1.782827-.836 3.0875-.836.747337 0 1.453497.1076656 2.1185.323s1.250831.5256646 1.7575.931l-1.615 2.014c-.354668-.2533346-.744165-.4559992-1.1685-.608-.424335-.1520008-.801165-.228-1.1305-.228-.392669 0-.693499.0601661-.9025.1805s-.3135.2881656-.3135.5035c0 .2026677.132999.3578328.399.4655.266001.1076672.677664.2058329 1.235.2945.73467.1266673 1.367997.2849991 1.9.475.532003.1900009.991165.5161644 1.3775.9785.386335.4623356.5795 1.1051626.5795 1.9285 0 1.0006717-.405329 1.7733306-1.216 2.318-.810671.5446694-1.963326.817-3.458.817-.823337 0-1.633996-.1519985-2.432-.456-.798004-.3040015-1.437664-.7029975-1.919-1.197zm17.796 1.178c-.202668.1013338-.576331.2026662-1.121.304s-.968998.152-1.273.152c-1.24134 0-2.197663-.3103302-2.869-.931-.671337-.6206698-1.007-1.5009943-1.007-2.641v-3.914h-1.938v-2.584h1.938v-2.793h2.964v2.793h3.021v2.584h-3.021v3.648c0 .7726705.392663 1.159 1.178 1.159.519336 0 1.025998-.0823325 1.52-.247l.608 2.47zm1.874-13.699h2.964V80h-2.964V66.13zm5.503.019h2.964v2.755h-2.964v-2.755zm0 4.066h2.964V80h-2.964v-9.785zm4.933 4.883c0-1.0006717.218498-1.8936627.6555-2.679.437002-.7853373 1.044996-1.3996645 1.824-1.843.779004-.4433356 1.668828-.665 2.6695-.665.988005 0 1.833496.2153312 2.5365.646.703004.4306688 1.295164 1.0956622 1.7765 1.995l-2.641 1.216c-.354668-.798004-.911996-1.197-1.672-1.197-.595336 0-1.089331.2406643-1.482.722-.392669.4813357-.589 1.0829964-.589 1.805 0 .7346703.196331 1.3394976.589 1.8145.392669.4750024.886664.7125 1.482.7125.772671 0 1.329998-.4243291 1.672-1.273l2.679 1.292c-.924671 1.7733422-2.37499 2.66-4.351 2.66-1.000672 0-1.890496-.2216645-2.6695-.665-.779004-.4433355-1.386998-1.0576627-1.824-1.843-.437002-.7853373-.6555-1.6846616-.6555-2.698zm20.798-1.197V80h-2.964v-5.358c0-.6966701-.136165-1.2254982-.4085-1.5865-.272335-.3610018-.668164-.5415-1.1875-.5415-.595336 0-1.057665.234331-1.387.703-.329335.468669-.494 1.0829962-.494 1.843V80h-2.964V66.13h2.964v5.225c.342002-.4560023.750498-.8043321 1.2255-1.045.475002-.2406679 1.00383-.361 1.5865-.361 1.089339 0 1.966497.3609964 2.6315 1.083s.9975 1.6783274.9975 2.869zm8.809 2.584l2.66 1.121c-.430669.8740044-1.032329 1.5421644-1.805 2.0045-.772671.4623356-1.652995.6935-2.641.6935-.962671 0-1.836663-.2279977-2.622-.684-.785337-.4560023-1.402831-1.0798294-1.8525-1.8715-.449669-.7916706-.6745-1.6751618-.6745-2.6505 0-.9753382.212165-1.8588294.6365-2.6505.424335-.7916706 1.01333-1.4123311 1.767-1.862.75367-.4496689 1.605495-.6745 2.5555-.6745.899338 0 1.71633.2121645 2.451.6365.73467.4243355 1.320498 1.0101629 1.7575 1.7575.437002.7473371.680833 1.589662.7315 2.527l.019.361-6.555 1.292c.177334.3800019.421165.6776656.7315.893.310335.2153344.661831.323 1.0545.323.861338 0 1.456665-.4053293 1.786-1.216zm-3.8-2.09l3.382-.665c-.139334-.3926686-.345165-.6966656-.6175-.912-.272335-.2153344-.585832-.323-.9405-.323-.430669 0-.813832.1741649-1.1495.5225-.335668.3483351-.560499.8074972-.6745 1.3775zm18.176-.494V80h-2.964v-5.358c0-.6966701-.136165-1.2254982-.4085-1.5865-.272335-.3610018-.668164-.5415-1.1875-.5415-.595336 0-1.057665.234331-1.387.703-.329335.468669-.494 1.0829962-.494 1.843V80h-2.964v-9.785h2.964v1.14c.342002-.4560023.750498-.8043321 1.2255-1.045.475002-.2406679 1.00383-.361 1.5865-.361 1.089339 0 1.966497.3609964 2.6315 1.083s.9975 1.6783274.9975 2.869zm16.345 3.135V80h-9.367V66.7h9.196v2.964h-6.061v2.204h3.914v2.964h-3.914v2.204h6.232zm1.589-1.102v-5.719h2.964v5.453c0 .5700029.155165 1.0291649.4655 1.3775.310335.3483351.718831.5225 1.2255.5225.519336 0 .934165-.1741649 1.2445-.5225.310335-.3483351.4655-.8074971.4655-1.3775v-5.453h2.964v5.719c0 .8486709-.196331 1.60233-.589 2.261-.392669.65867-.940496 1.1684982-1.6435 1.5295-.703004.3610018-1.516829.5415-2.4415.5415s-1.738496-.1804982-2.4415-.5415-1.247665-.87083-1.634-1.5295c-.386335-.65867-.5795-1.4123291-.5795-2.261zm20.475-2.774l-2.66.95c-.076-.5066692-.231165-.8961653-.4655-1.1685-.234334-.2723347-.535165-.4085-.9025-.4085-.544669 0-.965832.2628307-1.2635.7885-.297668.5256693-.4465 1.2444954-.4465 2.1565V80h-2.964v-9.785h2.964v1.216c.519336-1.0133384 1.348994-1.52 2.489-1.52.848671 0 1.56433.2913304 2.147.874.58267.5826696.949999 1.3743283 1.102 2.375zm.639 1.938c0-.9880049.221664-1.8778294.665-2.6695.443336-.7916706 1.057663-1.4091645 1.843-1.8525.785337-.4433356 1.671995-.665 2.66-.665.988005 0 1.874663.2216644 2.66.665.785337.4433355 1.399664 1.0608294 1.843 1.8525.443336.7916706.665 1.6814951.665 2.6695 0 1.0006717-.221664 1.8968294-.665 2.6885-.443336.7916706-1.054496 1.4091645-1.8335 1.8525-.779004.4433355-1.668828.665-2.6695.665-1.000672 0-1.890496-.2216645-2.6695-.665-.779004-.4433355-1.390164-1.0608294-1.8335-1.8525-.443336-.7916706-.665-1.6878283-.665-2.6885zm7.258 0c0-.7220036-.199498-1.317331-.5985-1.786s-.896164-.703-1.4915-.703c-.595336 0-1.092498.234331-1.4915.703-.399002.468669-.5985 1.0639964-.5985 1.786 0 .7346703.199498 1.336331.5985 1.805s.896164.703 1.4915.703c.608003 0 1.108331-.234331 1.501-.703.392669-.468669.589-1.0703297.589-1.805zm15.193 0c0 .9880049-.189998 1.8778294-.57 2.6695-.380002.7916706-.905663 1.4123311-1.577 1.862-.671337.4496689-1.424996.6745-2.261.6745-.570003 0-1.089331-.1076656-1.558-.323s-.861332-.5319979-1.178-.95v4.465h-2.964V70.215h2.964v.969c.316668-.4180021.709331-.7346656 1.178-.95.468669-.2153344.987997-.323 1.558-.323.848671 0 1.605497.2216644 2.2705.665.665003.4433355 1.187498 1.0608294 1.5675 1.8525.380002.7916706.57 1.6814951.57 2.6695zm-3.059 0c0-.7346703-.193165-1.3394976-.5795-1.8145-.386335-.4750024-.877164-.7125-1.4725-.7125-.595336 0-1.092498.2406643-1.4915.722-.399002.4813357-.5985 1.0829964-.5985 1.805 0 .7220036.199498 1.3236643.5985 1.805.399002.4813357.896164.722 1.4915.722.595336 0 1.086165-.2374976 1.4725-.7125.386335-.4750024.5795-1.0798297.5795-1.8145zm14.395-4.883V80h-2.964v-.893c-.278668.4180021-.585832.7156658-.9215.893-.335668.1773342-.756831.266-1.2635.266-.886671 0-1.690996-.2184978-2.413-.6555-.722004-.4370022-1.291998-1.0481627-1.71-1.8335-.418002-.7853373-.627-1.6783283-.627-2.679 0-1.0260051.202665-1.9316627.608-2.717.405335-.7853373.97533-1.3933312 1.71-1.824.73467-.4306688 1.595995-.646 2.584-.646.354668 0 .721998.0284997 1.102.0855.380002.0570003.690332.1298329.931.2185h2.964zm-2.926 5.073v-2.223c-.557336-.329335-1.12733-.494-1.71-.494-.684003 0-1.219165.2279977-1.6055.684-.386335.4560023-.5795 1.0703295-.5795 1.843 0 .7473371.193165 1.355331.5795 1.824s.883497.703 1.4915.703c.58267 0 1.032332-.1963314 1.349-.589.316668-.3926686.475-.9753295.475-1.748z"></path></g></svg>
