<svg xmlns="http://www.w3.org/2000/svg">
  <symbol id="arrowSmall" viewBox="0 0 20.644 15.207">
    <g transform="translate(0 0.611)">
      <line x2="19.033" transform="translate(0 6.993)" fill="none" stroke="currentColor" stroke-width="1.8"></line>
      <path d="M-4739.479-19288l6.454,6.992-6.454,6.992" transform="translate(4752.443 19287.996)" stroke="currentColor" fill="none" stroke-width="1.8"></path>
    </g>
  </symbol>
  <symbol id="speakerIcon" viewBox="0 0 75 75">
    <path d="M39.389,13.769 L22.235,28.606 L6,28.606 L6,47.699 L21.989,47.699 L39.389,62.75 L39.389,13.769z"
          style="stroke:currentColor;stroke-width:5;stroke-linejoin:round;fill:currentColor;"
    />
    <path d="M48,27.6a19.5,19.5 0 0 1 0,21.4M55.1,20.5a30,30 0 0 1 0,35.6M61.6,14a38.8,38.8 0 0 1 0,48.6" style="fill:none;stroke:currentColor;stroke-width:5;stroke-linecap:round"/>
  </symbol>
  <symbol id="muteIcon" viewBox="0 0 75 75"
       stroke="currentColor" stroke-width="5">
    <path d="m39,14-17,15H6V48H22l17,15z" fill="currentColor" stroke-linejoin="round"/>
    <path d="m49,26 20,24m0-24-20,24" fill="none" stroke-linecap="round"/>
  </symbol>
  <symbol id="fullscreenIcon" viewBox="0 -256 1792 1792">
    <g
      transform="matrix(1,0,0,-1,121.49153,1270.2373)"
      id="g2991">
      <path
        d="M 1283,995 928,640 1283,285 1427,429 q 29,31 70,14 39,-17 39,-59 V -64 q 0,-26 -19,-45 -19,-19 -45,-19 h -448 q -42,0 -59,40 -17,39 14,69 L 1123,125 768,480 413,125 557,-19 q 31,-30 14,-69 -17,-40 -59,-40 H 64 q -26,0 -45,19 -19,19 -19,45 v 448 q 0,42 40,59 39,17 69,-14 L 253,285 608,640 253,995 109,851 Q 90,832 64,832 52,832 40,837 0,854 0,896 v 448 q 0,26 19,45 19,19 45,19 h 448 q 42,0 59,-40 17,-39 -14,-69 l -144,-144 355,-355 355,355 -144,144 q -31,30 -14,69 17,40 59,40 h 448 q 26,0 45,-19 19,-19 19,-45 V 896 q 0,-42 -39,-59 -13,-5 -25,-5 -26,0 -45,19 z"
        id="path2993"
        style="fill:currentColor" />
    </g>
  </symbol>

</svg>
